<svg xmlns="http://www.w3.org/2000/svg" viewBox="0 0 348 128" shape-rendering="crispEdges" role="img" aria-label="PS Finder"><rect x="59" y="8" width="8" height="8" fill="#5a0a14"/><rect x="43" y="8" width="8" height="8" fill="#5a0a14"/><rect x="51" y="16" width="8" height="8" fill="#5a0a14"/><rect x="51" y="0" width="8" height="8" fill="#5a0a14"/><rect x="67" y="8" width="8" height="8" fill="#5a0a14"/><rect x="51" y="8" width="8" height="8" fill="#5a0a14"/><rect x="59" y="16" width="8" height="8" fill="#5a0a14"/><rect x="59" y="0" width="8" height="8" fill="#5a0a14"/><rect x="75" y="8" width="8" height="8" fill="#5a0a14"/><rect x="59" y="8" width="8" height="8" fill="#5a0a14"/><rect x="67" y="16" width="8" height="8" fill="#5a0a14"/><rect x="67" y="0" width="8" height="8" fill="#5a0a14"/><rect x="51" y="16" width="8" height="8" fill="#5a0a14"/><rect x="35" y="16" width="8" height="8" fill="#5a0a14"/><rect x="43" y="24" width="8" height="8" fill="#5a0a14"/><rect x="43" y="8" width="8" height="8" fill="#5a0a14"/><rect x="83" y="16" width="8" height="8" fill="#5a0a14"/><rect x="67" y="16" width="8" height="8" fill="#5a0a14"/><rect x="75" y="24" width="8" height="8" fill="#5a0a14"/><rect x="75" y="8" width="8" height="8" fill="#5a0a14"/><rect x="43" y="24" width="8" height="8" fill="#5a0a14"/><rect x="27" y="24" width="8" height="8" fill="#5a0a14"/><rect x="35" y="32" width="8" height="8" fill="#5a0a14"/><rect x="35" y="16" width="8" height="8" fill="#5a0a14"/><rect x="91" y="24" width="8" height="8" fill="#5a0a14"/><rect x="75" y="24" width="8" height="8" fill="#5a0a14"/><rect x="83" y="32" width="8" height="8" fill="#5a0a14"/><rect x="83" y="16" width="8" height="8" fill="#5a0a14"/><rect x="43" y="32" width="8" height="8" fill="#5a0a14"/><rect x="27" y="32" width="8" height="8" fill="#5a0a14"/><rect x="35" y="40" width="8" height="8" fill="#5a0a14"/><rect x="35" y="24" width="8" height="8" fill="#5a0a14"/><rect x="91" y="32" width="8" height="8" fill="#5a0a14"/><rect x="75" y="32" width="8" height="8" fill="#5a0a14"/><rect x="83" y="40" width="8" height="8" fill="#5a0a14"/><rect x="83" y="24" width="8" height="8" fill="#5a0a14"/><rect x="43" y="40" width="8" height="8" fill="#5a0a14"/><rect x="27" y="40" width="8" height="8" fill="#5a0a14"/><rect x="35" y="48" width="8" height="8" fill="#5a0a14"/><rect x="35" y="32" width="8" height="8" fill="#5a0a14"/><rect x="91" y="40" width="8" height="8" fill="#5a0a14"/><rect x="75" y="40" width="8" height="8" fill="#5a0a14"/><rect x="83" y="48" width="8" height="8" fill="#5a0a14"/><rect x="83" y="32" width="8" height="8" fill="#5a0a14"/><rect x="51" y="48" width="8" height="8" fill="#5a0a14"/><rect x="35" y="48" width="8" height="8" fill="#5a0a14"/><rect x="43" y="56" width="8" height="8" fill="#5a0a14"/><rect x="43" y="40" width="8" height="8" fill="#5a0a14"/><rect x="83" y="48" width="8" height="8" fill="#5a0a14"/><rect x="67" y="48" width="8" height="8" fill="#5a0a14"/><rect x="75" y="56" width="8" height="8" fill="#5a0a14"/><rect x="75" y="40" width="8" height="8" fill="#5a0a14"/><rect x="59" y="56" width="8" height="8" fill="#5a0a14"/><rect x="43" y="56" width="8" height="8" fill="#5a0a14"/><rect x="51" y="64" width="8" height="8" fill="#5a0a14"/><rect x="51" y="48" width="8" height="8" fill="#5a0a14"/><rect x="67" y="56" width="8" height="8" fill="#5a0a14"/><rect x="51" y="56" width="8" height="8" fill="#5a0a14"/><rect x="59" y="64" width="8" height="8" fill="#5a0a14"/><rect x="59" y="48" width="8" height="8" fill="#5a0a14"/><rect x="75" y="56" width="8" height="8" fill="#5a0a14"/><rect x="59" y="56" width="8" height="8" fill="#5a0a14"/><rect x="67" y="64" width="8" height="8" fill="#5a0a14"/><rect x="67" y="48" width="8" height="8" fill="#5a0a14"/><rect x="51" y="8" width="8" height="8" fill="#ff5e6f"/><rect x="59" y="8" width="8" height="8" fill="#ff5e6f"/><rect x="67" y="8" width="8" height="8" fill="#ff5e6f"/><rect x="43" y="16" width="8" height="8" fill="#ff5e6f"/><rect x="75" y="16" width="8" height="8" fill="#ff5e6f"/><rect x="35" y="24" width="8" height="8" fill="#ff5e6f"/><rect x="83" y="24" width="8" height="8" fill="#ff5e6f"/><rect x="35" y="32" width="8" height="8" fill="#ff5e6f"/><rect x="83" y="32" width="8" height="8" fill="#ff5e6f"/><rect x="35" y="40" width="8" height="8" fill="#ff5e6f"/><rect x="83" y="40" width="8" height="8" fill="#ff5e6f"/><rect x="43" y="48" width="8" height="8" fill="#ff5e6f"/><rect x="75" y="48" width="8" height="8" fill="#ff5e6f"/><rect x="51" y="56" width="8" height="8" fill="#ff5e6f"/><rect x="59" y="56" width="8" height="8" fill="#ff5e6f"/><rect x="67" y="56" width="8" height="8" fill="#ff5e6f"/><rect x="117" y="8" width="8" height="8" fill="#16335f"/><rect x="101" y="8" width="8" height="8" fill="#16335f"/><rect x="109" y="16" width="8" height="8" fill="#16335f"/><rect x="109" y="0" width="8" height="8" fill="#16335f"/><rect x="165" y="8" width="8" height="8" fill="#16335f"/><rect x="149" y="8" width="8" height="8" fill="#16335f"/><rect x="157" y="16" width="8" height="8" fill="#16335f"/><rect x="157" y="0" width="8" height="8" fill="#16335f"/><rect x="125" y="16" width="8" height="8" fill="#16335f"/><rect x="109" y="16" width="8" height="8" fill="#16335f"/><rect x="117" y="24" width="8" height="8" fill="#16335f"/><rect x="117" y="8" width="8" height="8" fill="#16335f"/><rect x="157" y="16" width="8" height="8" fill="#16335f"/><rect x="141" y="16" width="8" height="8" fill="#16335f"/><rect x="149" y="24" width="8" height="8" fill="#16335f"/><rect x="149" y="8" width="8" height="8" fill="#16335f"/><rect x="133" y="24" width="8" height="8" fill="#16335f"/><rect x="117" y="24" width="8" height="8" fill="#16335f"/><rect x="125" y="32" width="8" height="8" fill="#16335f"/><rect x="125" y="16" width="8" height="8" fill="#16335f"/><rect x="149" y="24" width="8" height="8" fill="#16335f"/><rect x="133" y="24" width="8" height="8" fill="#16335f"/><rect x="141" y="32" width="8" height="8" fill="#16335f"/><rect x="141" y="16" width="8" height="8" fill="#16335f"/><rect x="141" y="32" width="8" height="8" fill="#16335f"/><rect x="125" y="32" width="8" height="8" fill="#16335f"/><rect x="133" y="40" width="8" height="8" fill="#16335f"/><rect x="133" y="24" width="8" height="8" fill="#16335f"/><rect x="133" y="40" width="8" height="8" fill="#16335f"/><rect x="117" y="40" width="8" height="8" fill="#16335f"/><rect x="125" y="48" width="8" height="8" fill="#16335f"/><rect x="125" y="32" width="8" height="8" fill="#16335f"/><rect x="149" y="40" width="8" height="8" fill="#16335f"/><rect x="133" y="40" width="8" height="8" fill="#16335f"/><rect x="141" y="48" width="8" height="8" fill="#16335f"/><rect x="141" y="32" width="8" height="8" fill="#16335f"/><rect x="125" y="48" width="8" height="8" fill="#16335f"/><rect x="109" y="48" width="8" height="8" fill="#16335f"/><rect x="117" y="56" width="8" height="8" fill="#16335f"/><rect x="117" y="40" width="8" height="8" fill="#16335f"/><rect x="157" y="48" width="8" height="8" fill="#16335f"/><rect x="141" y="48" width="8" height="8" fill="#16335f"/><rect x="149" y="56" width="8" height="8" fill="#16335f"/><rect x="149" y="40" width="8" height="8" fill="#16335f"/><rect x="117" y="56" width="8" height="8" fill="#16335f"/><rect x="101" y="56" width="8" height="8" fill="#16335f"/><rect x="109" y="64" width="8" height="8" fill="#16335f"/><rect x="109" y="48" width="8" height="8" fill="#16335f"/><rect x="165" y="56" width="8" height="8" fill="#16335f"/><rect x="149" y="56" width="8" height="8" fill="#16335f"/><rect x="157" y="64" width="8" height="8" fill="#16335f"/><rect x="157" y="48" width="8" height="8" fill="#16335f"/><rect x="109" y="8" width="8" height="8" fill="#7ea6ff"/><rect x="157" y="8" width="8" height="8" fill="#7ea6ff"/><rect x="117" y="16" width="8" height="8" fill="#7ea6ff"/><rect x="149" y="16" width="8" height="8" fill="#7ea6ff"/><rect x="125" y="24" width="8" height="8" fill="#7ea6ff"/><rect x="141" y="24" width="8" height="8" fill="#7ea6ff"/><rect x="133" y="32" width="8" height="8" fill="#7ea6ff"/><rect x="125" y="40" width="8" height="8" fill="#7ea6ff"/><rect x="141" y="40" width="8" height="8" fill="#7ea6ff"/><rect x="117" y="48" width="8" height="8" fill="#7ea6ff"/><rect x="149" y="48" width="8" height="8" fill="#7ea6ff"/><rect x="109" y="56" width="8" height="8" fill="#7ea6ff"/><rect x="157" y="56" width="8" height="8" fill="#7ea6ff"/><rect x="191" y="8" width="8" height="8" fill="#3a0a2f"/><rect x="175" y="8" width="8" height="8" fill="#3a0a2f"/><rect x="183" y="16" width="8" height="8" fill="#3a0a2f"/><rect x="183" y="0" width="8" height="8" fill="#3a0a2f"/><rect x="199" y="8" width="8" height="8" fill="#3a0a2f"/><rect x="183" y="8" width="8" height="8" fill="#3a0a2f"/><rect x="191" y="16" width="8" height="8" fill="#3a0a2f"/><rect x="191" y="0" width="8" height="8" fill="#3a0a2f"/><rect x="207" y="8" width="8" height="8" fill="#3a0a2f"/><rect x="191" y="8" width="8" height="8" fill="#3a0a2f"/><rect x="199" y="16" width="8" height="8" fill="#3a0a2f"/><rect x="199" y="0" width="8" height="8" fill="#3a0a2f"/><rect x="215" y="8" width="8" height="8" fill="#3a0a2f"/><rect x="199" y="8" width="8" height="8" fill="#3a0a2f"/><rect x="207" y="16" width="8" height="8" fill="#3a0a2f"/><rect x="207" y="0" width="8" height="8" fill="#3a0a2f"/><rect x="223" y="8" width="8" height="8" fill="#3a0a2f"/><rect x="207" y="8" width="8" height="8" fill="#3a0a2f"/><rect x="215" y="16" width="8" height="8" fill="#3a0a2f"/><rect x="215" y="0" width="8" height="8" fill="#3a0a2f"/><rect x="231" y="8" width="8" height="8" fill="#3a0a2f"/><rect x="215" y="8" width="8" height="8" fill="#3a0a2f"/><rect x="223" y="16" width="8" height="8" fill="#3a0a2f"/><rect x="223" y="0" width="8" height="8" fill="#3a0a2f"/><rect x="239" y="8" width="8" height="8" fill="#3a0a2f"/><rect x="223" y="8" width="8" height="8" fill="#3a0a2f"/><rect x="231" y="16" width="8" height="8" fill="#3a0a2f"/><rect x="231" y="0" width="8" height="8" fill="#3a0a2f"/><rect x="191" y="16" width="8" height="8" fill="#3a0a2f"/><rect x="175" y="16" width="8" height="8" fill="#3a0a2f"/><rect x="183" y="24" width="8" height="8" fill="#3a0a2f"/><rect x="183" y="8" width="8" height="8" fill="#3a0a2f"/><rect x="239" y="16" width="8" height="8" fill="#3a0a2f"/><rect x="223" y="16" width="8" height="8" fill="#3a0a2f"/><rect x="231" y="24" width="8" height="8" fill="#3a0a2f"/><rect x="231" y="8" width="8" height="8" fill="#3a0a2f"/><rect x="191" y="24" width="8" height="8" fill="#3a0a2f"/><rect x="175" y="24" width="8" height="8" fill="#3a0a2f"/><rect x="183" y="32" width="8" height="8" fill="#3a0a2f"/><rect x="183" y="16" width="8" height="8" fill="#3a0a2f"/><rect x="239" y="24" width="8" height="8" fill="#3a0a2f"/><rect x="223" y="24" width="8" height="8" fill="#3a0a2f"/><rect x="231" y="32" width="8" height="8" fill="#3a0a2f"/><rect x="231" y="16" width="8" height="8" fill="#3a0a2f"/><rect x="191" y="32" width="8" height="8" fill="#3a0a2f"/><rect x="175" y="32" width="8" height="8" fill="#3a0a2f"/><rect x="183" y="40" width="8" height="8" fill="#3a0a2f"/><rect x="183" y="24" width="8" height="8" fill="#3a0a2f"/><rect x="239" y="32" width="8" height="8" fill="#3a0a2f"/><rect x="223" y="32" width="8" height="8" fill="#3a0a2f"/><rect x="231" y="40" width="8" height="8" fill="#3a0a2f"/><rect x="231" y="24" width="8" height="8" fill="#3a0a2f"/><rect x="191" y="40" width="8" height="8" fill="#3a0a2f"/><rect x="175" y="40" width="8" height="8" fill="#3a0a2f"/><rect x="183" y="48" width="8" height="8" fill="#3a0a2f"/><rect x="183" y="32" width="8" height="8" fill="#3a0a2f"/><rect x="239" y="40" width="8" height="8" fill="#3a0a2f"/><rect x="223" y="40" width="8" height="8" fill="#3a0a2f"/><rect x="231" y="48" width="8" height="8" fill="#3a0a2f"/><rect x="231" y="32" width="8" height="8" fill="#3a0a2f"/><rect x="191" y="48" width="8" height="8" fill="#3a0a2f"/><rect x="175" y="48" width="8" height="8" fill="#3a0a2f"/><rect x="183" y="56" width="8" height="8" fill="#3a0a2f"/><rect x="183" y="40" width="8" height="8" fill="#3a0a2f"/><rect x="239" y="48" width="8" height="8" fill="#3a0a2f"/><rect x="223" y="48" width="8" height="8" fill="#3a0a2f"/><rect x="231" y="56" width="8" height="8" fill="#3a0a2f"/><rect x="231" y="40" width="8" height="8" fill="#3a0a2f"/><rect x="191" y="56" width="8" height="8" fill="#3a0a2f"/><rect x="175" y="56" width="8" height="8" fill="#3a0a2f"/><rect x="183" y="64" width="8" height="8" fill="#3a0a2f"/><rect x="183" y="48" width="8" height="8" fill="#3a0a2f"/><rect x="199" y="56" width="8" height="8" fill="#3a0a2f"/><rect x="183" y="56" width="8" height="8" fill="#3a0a2f"/><rect x="191" y="64" width="8" height="8" fill="#3a0a2f"/><rect x="191" y="48" width="8" height="8" fill="#3a0a2f"/><rect x="207" y="56" width="8" height="8" fill="#3a0a2f"/><rect x="191" y="56" width="8" height="8" fill="#3a0a2f"/><rect x="199" y="64" width="8" height="8" fill="#3a0a2f"/><rect x="199" y="48" width="8" height="8" fill="#3a0a2f"/><rect x="215" y="56" width="8" height="8" fill="#3a0a2f"/><rect x="199" y="56" width="8" height="8" fill="#3a0a2f"/><rect x="207" y="64" width="8" height="8" fill="#3a0a2f"/><rect x="207" y="48" width="8" height="8" fill="#3a0a2f"/><rect x="223" y="56" width="8" height="8" fill="#3a0a2f"/><rect x="207" y="56" width="8" height="8" fill="#3a0a2f"/><rect x="215" y="64" width="8" height="8" fill="#3a0a2f"/><rect x="215" y="48" width="8" height="8" fill="#3a0a2f"/><rect x="231" y="56" width="8" height="8" fill="#3a0a2f"/><rect x="215" y="56" width="8" height="8" fill="#3a0a2f"/><rect x="223" y="64" width="8" height="8" fill="#3a0a2f"/><rect x="223" y="48" width="8" height="8" fill="#3a0a2f"/><rect x="239" y="56" width="8" height="8" fill="#3a0a2f"/><rect x="223" y="56" width="8" height="8" fill="#3a0a2f"/><rect x="231" y="64" width="8" height="8" fill="#3a0a2f"/><rect x="231" y="48" width="8" height="8" fill="#3a0a2f"/><rect x="183" y="8" width="8" height="8" fill="#e07ad6"/><rect x="191" y="8" width="8" height="8" fill="#e07ad6"/><rect x="199" y="8" width="8" height="8" fill="#e07ad6"/><rect x="207" y="8" width="8" height="8" fill="#e07ad6"/><rect x="215" y="8" width="8" height="8" fill="#e07ad6"/><rect x="223" y="8" width="8" height="8" fill="#e07ad6"/><rect x="231" y="8" width="8" height="8" fill="#e07ad6"/><rect x="183" y="16" width="8" height="8" fill="#e07ad6"/><rect x="231" y="16" width="8" height="8" fill="#e07ad6"/><rect x="183" y="24" width="8" height="8" fill="#e07ad6"/><rect x="231" y="24" width="8" height="8" fill="#e07ad6"/><rect x="183" y="32" width="8" height="8" fill="#e07ad6"/><rect x="231" y="32" width="8" height="8" fill="#e07ad6"/><rect x="183" y="40" width="8" height="8" fill="#e07ad6"/><rect x="231" y="40" width="8" height="8" fill="#e07ad6"/><rect x="183" y="48" width="8" height="8" fill="#e07ad6"/><rect x="231" y="48" width="8" height="8" fill="#e07ad6"/><rect x="183" y="56" width="8" height="8" fill="#e07ad6"/><rect x="191" y="56" width="8" height="8" fill="#e07ad6"/><rect x="199" y="56" width="8" height="8" fill="#e07ad6"/><rect x="207" y="56" width="8" height="8" fill="#e07ad6"/><rect x="215" y="56" width="8" height="8" fill="#e07ad6"/><rect x="223" y="56" width="8" height="8" fill="#e07ad6"/><rect x="231" y="56" width="8" height="8" fill="#e07ad6"/><rect x="289" y="8" width="8" height="8" fill="#06301f"/><rect x="273" y="8" width="8" height="8" fill="#06301f"/><rect x="281" y="16" width="8" height="8" fill="#06301f"/><rect x="281" y="0" width="8" height="8" fill="#06301f"/><rect x="289" y="16" width="8" height="8" fill="#06301f"/><rect x="273" y="16" width="8" height="8" fill="#06301f"/><rect x="281" y="24" width="8" height="8" fill="#06301f"/><rect x="281" y="8" width="8" height="8" fill="#06301f"/><rect x="281" y="24" width="8" height="8" fill="#06301f"/><rect x="265" y="24" width="8" height="8" fill="#06301f"/><rect x="273" y="32" width="8" height="8" fill="#06301f"/><rect x="273" y="16" width="8" height="8" fill="#06301f"/><rect x="297" y="24" width="8" height="8" fill="#06301f"/><rect x="281" y="24" width="8" height="8" fill="#06301f"/><rect x="289" y="32" width="8" height="8" fill="#06301f"/><rect x="289" y="16" width="8" height="8" fill="#06301f"/><rect x="281" y="32" width="8" height="8" fill="#06301f"/><rect x="265" y="32" width="8" height="8" fill="#06301f"/><rect x="273" y="40" width="8" height="8" fill="#06301f"/><rect x="273" y="24" width="8" height="8" fill="#06301f"/><rect x="297" y="32" width="8" height="8" fill="#06301f"/><rect x="281" y="32" width="8" height="8" fill="#06301f"/><rect x="289" y="40" width="8" height="8" fill="#06301f"/><rect x="289" y="24" width="8" height="8" fill="#06301f"/><rect x="273" y="40" width="8" height="8" fill="#06301f"/><rect x="257" y="40" width="8" height="8" fill="#06301f"/><rect x="265" y="48" width="8" height="8" fill="#06301f"/><rect x="265" y="32" width="8" height="8" fill="#06301f"/><rect x="305" y="40" width="8" height="8" fill="#06301f"/><rect x="289" y="40" width="8" height="8" fill="#06301f"/><rect x="297" y="48" width="8" height="8" fill="#06301f"/><rect x="297" y="32" width="8" height="8" fill="#06301f"/><rect x="265" y="48" width="8" height="8" fill="#06301f"/><rect x="249" y="48" width="8" height="8" fill="#06301f"/><rect x="257" y="56" width="8" height="8" fill="#06301f"/><rect x="257" y="40" width="8" height="8" fill="#06301f"/><rect x="313" y="48" width="8" height="8" fill="#06301f"/><rect x="297" y="48" width="8" height="8" fill="#06301f"/><rect x="305" y="56" width="8" height="8" fill="#06301f"/><rect x="305" y="40" width="8" height="8" fill="#06301f"/><rect x="265" y="56" width="8" height="8" fill="#06301f"/><rect x="249" y="56" width="8" height="8" fill="#06301f"/><rect x="257" y="64" width="8" height="8" fill="#06301f"/><rect x="257" y="48" width="8" height="8" fill="#06301f"/><rect x="273" y="56" width="8" height="8" fill="#06301f"/><rect x="257" y="56" width="8" height="8" fill="#06301f"/><rect x="265" y="64" width="8" height="8" fill="#06301f"/><rect x="265" y="48" width="8" height="8" fill="#06301f"/><rect x="281" y="56" width="8" height="8" fill="#06301f"/><rect x="265" y="56" width="8" height="8" fill="#06301f"/><rect x="273" y="64" width="8" height="8" fill="#06301f"/><rect x="273" y="48" width="8" height="8" fill="#06301f"/><rect x="289" y="56" width="8" height="8" fill="#06301f"/><rect x="273" y="56" width="8" height="8" fill="#06301f"/><rect x="281" y="64" width="8" height="8" fill="#06301f"/><rect x="281" y="48" width="8" height="8" fill="#06301f"/><rect x="297" y="56" width="8" height="8" fill="#06301f"/><rect x="281" y="56" width="8" height="8" fill="#06301f"/><rect x="289" y="64" width="8" height="8" fill="#06301f"/><rect x="289" y="48" width="8" height="8" fill="#06301f"/><rect x="305" y="56" width="8" height="8" fill="#06301f"/><rect x="289" y="56" width="8" height="8" fill="#06301f"/><rect x="297" y="64" width="8" height="8" fill="#06301f"/><rect x="297" y="48" width="8" height="8" fill="#06301f"/><rect x="313" y="56" width="8" height="8" fill="#06301f"/><rect x="297" y="56" width="8" height="8" fill="#06301f"/><rect x="305" y="64" width="8" height="8" fill="#06301f"/><rect x="305" y="48" width="8" height="8" fill="#06301f"/><rect x="281" y="8" width="8" height="8" fill="#54e0a0"/><rect x="281" y="16" width="8" height="8" fill="#54e0a0"/><rect x="273" y="24" width="8" height="8" fill="#54e0a0"/><rect x="289" y="24" width="8" height="8" fill="#54e0a0"/><rect x="273" y="32" width="8" height="8" fill="#54e0a0"/><rect x="289" y="32" width="8" height="8" fill="#54e0a0"/><rect x="265" y="40" width="8" height="8" fill="#54e0a0"/><rect x="297" y="40" width="8" height="8" fill="#54e0a0"/><rect x="257" y="48" width="8" height="8" fill="#54e0a0"/><rect x="305" y="48" width="8" height="8" fill="#54e0a0"/><rect x="257" y="56" width="8" height="8" fill="#54e0a0"/><rect x="265" y="56" width="8" height="8" fill="#54e0a0"/><rect x="273" y="56" width="8" height="8" fill="#54e0a0"/><rect x="281" y="56" width="8" height="8" fill="#54e0a0"/><rect x="289" y="56" width="8" height="8" fill="#54e0a0"/><rect x="297" y="56" width="8" height="8" fill="#54e0a0"/><rect x="305" y="56" width="8" height="8" fill="#54e0a0"/><rect x="16" y="75" width="6" height="6" fill="#0a1a38"/><rect x="22" y="75" width="6" height="6" fill="#0a1a38"/><rect x="28" y="75" width="6" height="6" fill="#0a1a38"/><rect x="34" y="75" width="6" height="6" fill="#0a1a38"/><rect x="16" y="81" width="6" height="6" fill="#0a1a38"/><rect x="40" y="81" width="6" height="6" fill="#0a1a38"/><rect x="16" y="87" width="6" height="6" fill="#0a1a38"/><rect x="40" y="87" width="6" height="6" fill="#0a1a38"/><rect x="16" y="93" width="6" height="6" fill="#0a1a38"/><rect x="22" y="93" width="6" height="6" fill="#0a1a38"/><rect x="28" y="93" width="6" height="6" fill="#0a1a38"/><rect x="34" y="93" width="6" height="6" fill="#0a1a38"/><rect x="16" y="99" width="6" height="6" fill="#0a1a38"/><rect x="16" y="105" width="6" height="6" fill="#0a1a38"/><rect x="16" y="111" width="6" height="6" fill="#0a1a38"/><rect x="58" y="75" width="6" height="6" fill="#0a1a38"/><rect x="64" y="75" width="6" height="6" fill="#0a1a38"/><rect x="70" y="75" width="6" height="6" fill="#0a1a38"/><rect x="76" y="75" width="6" height="6" fill="#0a1a38"/><rect x="52" y="81" width="6" height="6" fill="#0a1a38"/><rect x="52" y="87" width="6" height="6" fill="#0a1a38"/><rect x="58" y="93" width="6" height="6" fill="#0a1a38"/><rect x="64" y="93" width="6" height="6" fill="#0a1a38"/><rect x="70" y="93" width="6" height="6" fill="#0a1a38"/><rect x="76" y="99" width="6" height="6" fill="#0a1a38"/><rect x="76" y="105" width="6" height="6" fill="#0a1a38"/><rect x="52" y="111" width="6" height="6" fill="#0a1a38"/><rect x="58" y="111" width="6" height="6" fill="#0a1a38"/><rect x="64" y="111" width="6" height="6" fill="#0a1a38"/><rect x="70" y="111" width="6" height="6" fill="#0a1a38"/><rect x="124" y="75" width="6" height="6" fill="#0a1a38"/><rect x="130" y="75" width="6" height="6" fill="#0a1a38"/><rect x="136" y="75" width="6" height="6" fill="#0a1a38"/><rect x="142" y="75" width="6" height="6" fill="#0a1a38"/><rect x="148" y="75" width="6" height="6" fill="#0a1a38"/><rect x="124" y="81" width="6" height="6" fill="#0a1a38"/><rect x="124" y="87" width="6" height="6" fill="#0a1a38"/><rect x="124" y="93" width="6" height="6" fill="#0a1a38"/><rect x="130" y="93" width="6" height="6" fill="#0a1a38"/><rect x="136" y="93" width="6" height="6" fill="#0a1a38"/><rect x="142" y="93" width="6" height="6" fill="#0a1a38"/><rect x="124" y="99" width="6" height="6" fill="#0a1a38"/><rect x="124" y="105" width="6" height="6" fill="#0a1a38"/><rect x="124" y="111" width="6" height="6" fill="#0a1a38"/><rect x="160" y="75" width="6" height="6" fill="#0a1a38"/><rect x="166" y="75" width="6" height="6" fill="#0a1a38"/><rect x="172" y="75" width="6" height="6" fill="#0a1a38"/><rect x="178" y="75" width="6" height="6" fill="#0a1a38"/><rect x="184" y="75" width="6" height="6" fill="#0a1a38"/><rect x="172" y="81" width="6" height="6" fill="#0a1a38"/><rect x="172" y="87" width="6" height="6" fill="#0a1a38"/><rect x="172" y="93" width="6" height="6" fill="#0a1a38"/><rect x="172" y="99" width="6" height="6" fill="#0a1a38"/><rect x="172" y="105" width="6" height="6" fill="#0a1a38"/><rect x="160" y="111" width="6" height="6" fill="#0a1a38"/><rect x="166" y="111" width="6" height="6" fill="#0a1a38"/><rect x="172" y="111" width="6" height="6" fill="#0a1a38"/><rect x="178" y="111" width="6" height="6" fill="#0a1a38"/><rect x="184" y="111" width="6" height="6" fill="#0a1a38"/><rect x="196" y="75" width="6" height="6" fill="#0a1a38"/><rect x="220" y="75" width="6" height="6" fill="#0a1a38"/><rect x="196" y="81" width="6" height="6" fill="#0a1a38"/><rect x="202" y="81" width="6" height="6" fill="#0a1a38"/><rect x="220" y="81" width="6" height="6" fill="#0a1a38"/><rect x="196" y="87" width="6" height="6" fill="#0a1a38"/><rect x="208" y="87" width="6" height="6" fill="#0a1a38"/><rect x="220" y="87" width="6" height="6" fill="#0a1a38"/><rect x="196" y="93" width="6" height="6" fill="#0a1a38"/><rect x="208" y="93" width="6" height="6" fill="#0a1a38"/><rect x="220" y="93" width="6" height="6" fill="#0a1a38"/><rect x="196" y="99" width="6" height="6" fill="#0a1a38"/><rect x="208" y="99" width="6" height="6" fill="#0a1a38"/><rect x="220" y="99" width="6" height="6" fill="#0a1a38"/><rect x="196" y="105" width="6" height="6" fill="#0a1a38"/><rect x="214" y="105" width="6" height="6" fill="#0a1a38"/><rect x="220" y="105" width="6" height="6" fill="#0a1a38"/><rect x="196" y="111" width="6" height="6" fill="#0a1a38"/><rect x="220" y="111" width="6" height="6" fill="#0a1a38"/><rect x="232" y="75" width="6" height="6" fill="#0a1a38"/><rect x="238" y="75" width="6" height="6" fill="#0a1a38"/><rect x="244" y="75" width="6" height="6" fill="#0a1a38"/><rect x="250" y="75" width="6" height="6" fill="#0a1a38"/><rect x="232" y="81" width="6" height="6" fill="#0a1a38"/><rect x="256" y="81" width="6" height="6" fill="#0a1a38"/><rect x="232" y="87" width="6" height="6" fill="#0a1a38"/><rect x="256" y="87" width="6" height="6" fill="#0a1a38"/><rect x="232" y="93" width="6" height="6" fill="#0a1a38"/><rect x="256" y="93" width="6" height="6" fill="#0a1a38"/><rect x="232" y="99" width="6" height="6" fill="#0a1a38"/><rect x="256" y="99" width="6" height="6" fill="#0a1a38"/><rect x="232" y="105" width="6" height="6" fill="#0a1a38"/><rect x="256" y="105" width="6" height="6" fill="#0a1a38"/><rect x="232" y="111" width="6" height="6" fill="#0a1a38"/><rect x="238" y="111" width="6" height="6" fill="#0a1a38"/><rect x="244" y="111" width="6" height="6" fill="#0a1a38"/><rect x="250" y="111" width="6" height="6" fill="#0a1a38"/><rect x="268" y="75" width="6" height="6" fill="#0a1a38"/><rect x="274" y="75" width="6" height="6" fill="#0a1a38"/><rect x="280" y="75" width="6" height="6" fill="#0a1a38"/><rect x="286" y="75" width="6" height="6" fill="#0a1a38"/><rect x="292" y="75" width="6" height="6" fill="#0a1a38"/><rect x="268" y="81" width="6" height="6" fill="#0a1a38"/><rect x="268" y="87" width="6" height="6" fill="#0a1a38"/><rect x="268" y="93" width="6" height="6" fill="#0a1a38"/><rect x="274" y="93" width="6" height="6" fill="#0a1a38"/><rect x="280" y="93" width="6" height="6" fill="#0a1a38"/><rect x="286" y="93" width="6" height="6" fill="#0a1a38"/><rect x="268" y="99" width="6" height="6" fill="#0a1a38"/><rect x="268" y="105" width="6" height="6" fill="#0a1a38"/><rect x="268" y="111" width="6" height="6" fill="#0a1a38"/><rect x="274" y="111" width="6" height="6" fill="#0a1a38"/><rect x="280" y="111" width="6" height="6" fill="#0a1a38"/><rect x="286" y="111" width="6" height="6" fill="#0a1a38"/><rect x="292" y="111" width="6" height="6" fill="#0a1a38"/><rect x="304" y="75" width="6" height="6" fill="#0a1a38"/><rect x="310" y="75" width="6" height="6" fill="#0a1a38"/><rect x="316" y="75" width="6" height="6" fill="#0a1a38"/><rect x="322" y="75" width="6" height="6" fill="#0a1a38"/><rect x="304" y="81" width="6" height="6" fill="#0a1a38"/><rect x="328" y="81" width="6" height="6" fill="#0a1a38"/><rect x="304" y="87" width="6" height="6" fill="#0a1a38"/><rect x="328" y="87" width="6" height="6" fill="#0a1a38"/><rect x="304" y="93" width="6" height="6" fill="#0a1a38"/><rect x="310" y="93" width="6" height="6" fill="#0a1a38"/><rect x="316" y="93" width="6" height="6" fill="#0a1a38"/><rect x="322" y="93" width="6" height="6" fill="#0a1a38"/><rect x="304" y="99" width="6" height="6" fill="#0a1a38"/><rect x="316" y="99" width="6" height="6" fill="#0a1a38"/><rect x="304" y="105" width="6" height="6" fill="#0a1a38"/><rect x="322" y="105" width="6" height="6" fill="#0a1a38"/><rect x="304" y="111" width="6" height="6" fill="#0a1a38"/><rect x="328" y="111" width="6" height="6" fill="#0a1a38"/><rect x="15" y="74" width="6" height="6" fill="#3cbcfc"/><rect x="21" y="74" width="6" height="6" fill="#3cbcfc"/><rect x="27" y="74" width="6" height="6" fill="#3cbcfc"/><rect x="33" y="74" width="6" height="6" fill="#3cbcfc"/><rect x="15" y="80" width="6" height="6" fill="#3cbcfc"/><rect x="39" y="80" width="6" height="6" fill="#3cbcfc"/><rect x="15" y="86" width="6" height="6" fill="#3cbcfc"/><rect x="39" y="86" width="6" height="6" fill="#3cbcfc"/><rect x="15" y="92" width="6" height="6" fill="#3cbcfc"/><rect x="21" y="92" width="6" height="6" fill="#3cbcfc"/><rect x="27" y="92" width="6" height="6" fill="#3cbcfc"/><rect x="33" y="92" width="6" height="6" fill="#3cbcfc"/><rect x="15" y="98" width="6" height="6" fill="#3cbcfc"/><rect x="15" y="104" width="6" height="6" fill="#3cbcfc"/><rect x="15" y="110" width="6" height="6" fill="#3cbcfc"/><rect x="57" y="74" width="6" height="6" fill="#3cbcfc"/><rect x="63" y="74" width="6" height="6" fill="#3cbcfc"/><rect x="69" y="74" width="6" height="6" fill="#3cbcfc"/><rect x="75" y="74" width="6" height="6" fill="#3cbcfc"/><rect x="51" y="80" width="6" height="6" fill="#3cbcfc"/><rect x="51" y="86" width="6" height="6" fill="#3cbcfc"/><rect x="57" y="92" width="6" height="6" fill="#3cbcfc"/><rect x="63" y="92" width="6" height="6" fill="#3cbcfc"/><rect x="69" y="92" width="6" height="6" fill="#3cbcfc"/><rect x="75" y="98" width="6" height="6" fill="#3cbcfc"/><rect x="75" y="104" width="6" height="6" fill="#3cbcfc"/><rect x="51" y="110" width="6" height="6" fill="#3cbcfc"/><rect x="57" y="110" width="6" height="6" fill="#3cbcfc"/><rect x="63" y="110" width="6" height="6" fill="#3cbcfc"/><rect x="69" y="110" width="6" height="6" fill="#3cbcfc"/><rect x="123" y="74" width="6" height="6" fill="#ffffff"/><rect x="129" y="74" width="6" height="6" fill="#ffffff"/><rect x="135" y="74" width="6" height="6" fill="#ffffff"/><rect x="141" y="74" width="6" height="6" fill="#ffffff"/><rect x="147" y="74" width="6" height="6" fill="#ffffff"/><rect x="123" y="80" width="6" height="6" fill="#ffffff"/><rect x="123" y="86" width="6" height="6" fill="#ffffff"/><rect x="123" y="92" width="6" height="6" fill="#ffffff"/><rect x="129" y="92" width="6" height="6" fill="#ffffff"/><rect x="135" y="92" width="6" height="6" fill="#ffffff"/><rect x="141" y="92" width="6" height="6" fill="#ffffff"/><rect x="123" y="98" width="6" height="6" fill="#ffffff"/><rect x="123" y="104" width="6" height="6" fill="#ffffff"/><rect x="123" y="110" width="6" height="6" fill="#ffffff"/><rect x="159" y="74" width="6" height="6" fill="#ffffff"/><rect x="165" y="74" width="6" height="6" fill="#ffffff"/><rect x="171" y="74" width="6" height="6" fill="#ffffff"/><rect x="177" y="74" width="6" height="6" fill="#ffffff"/><rect x="183" y="74" width="6" height="6" fill="#ffffff"/><rect x="171" y="80" width="6" height="6" fill="#ffffff"/><rect x="171" y="86" width="6" height="6" fill="#ffffff"/><rect x="171" y="92" width="6" height="6" fill="#ffffff"/><rect x="171" y="98" width="6" height="6" fill="#ffffff"/><rect x="171" y="104" width="6" height="6" fill="#ffffff"/><rect x="159" y="110" width="6" height="6" fill="#ffffff"/><rect x="165" y="110" width="6" height="6" fill="#ffffff"/><rect x="171" y="110" width="6" height="6" fill="#ffffff"/><rect x="177" y="110" width="6" height="6" fill="#ffffff"/><rect x="183" y="110" width="6" height="6" fill="#ffffff"/><rect x="195" y="74" width="6" height="6" fill="#ffffff"/><rect x="219" y="74" width="6" height="6" fill="#ffffff"/><rect x="195" y="80" width="6" height="6" fill="#ffffff"/><rect x="201" y="80" width="6" height="6" fill="#ffffff"/><rect x="219" y="80" width="6" height="6" fill="#ffffff"/><rect x="195" y="86" width="6" height="6" fill="#ffffff"/><rect x="207" y="86" width="6" height="6" fill="#ffffff"/><rect x="219" y="86" width="6" height="6" fill="#ffffff"/><rect x="195" y="92" width="6" height="6" fill="#ffffff"/><rect x="207" y="92" width="6" height="6" fill="#ffffff"/><rect x="219" y="92" width="6" height="6" fill="#ffffff"/><rect x="195" y="98" width="6" height="6" fill="#ffffff"/><rect x="207" y="98" width="6" height="6" fill="#ffffff"/><rect x="219" y="98" width="6" height="6" fill="#ffffff"/><rect x="195" y="104" width="6" height="6" fill="#ffffff"/><rect x="213" y="104" width="6" height="6" fill="#ffffff"/><rect x="219" y="104" width="6" height="6" fill="#ffffff"/><rect x="195" y="110" width="6" height="6" fill="#ffffff"/><rect x="219" y="110" width="6" height="6" fill="#ffffff"/><rect x="231" y="74" width="6" height="6" fill="#ffffff"/><rect x="237" y="74" width="6" height="6" fill="#ffffff"/><rect x="243" y="74" width="6" height="6" fill="#ffffff"/><rect x="249" y="74" width="6" height="6" fill="#ffffff"/><rect x="231" y="80" width="6" height="6" fill="#ffffff"/><rect x="255" y="80" width="6" height="6" fill="#ffffff"/><rect x="231" y="86" width="6" height="6" fill="#ffffff"/><rect x="255" y="86" width="6" height="6" fill="#ffffff"/><rect x="231" y="92" width="6" height="6" fill="#ffffff"/><rect x="255" y="92" width="6" height="6" fill="#ffffff"/><rect x="231" y="98" width="6" height="6" fill="#ffffff"/><rect x="255" y="98" width="6" height="6" fill="#ffffff"/><rect x="231" y="104" width="6" height="6" fill="#ffffff"/><rect x="255" y="104" width="6" height="6" fill="#ffffff"/><rect x="231" y="110" width="6" height="6" fill="#ffffff"/><rect x="237" y="110" width="6" height="6" fill="#ffffff"/><rect x="243" y="110" width="6" height="6" fill="#ffffff"/><rect x="249" y="110" width="6" height="6" fill="#ffffff"/><rect x="267" y="74" width="6" height="6" fill="#ffffff"/><rect x="273" y="74" width="6" height="6" fill="#ffffff"/><rect x="279" y="74" width="6" height="6" fill="#ffffff"/><rect x="285" y="74" width="6" height="6" fill="#ffffff"/><rect x="291" y="74" width="6" height="6" fill="#ffffff"/><rect x="267" y="80" width="6" height="6" fill="#ffffff"/><rect x="267" y="86" width="6" height="6" fill="#ffffff"/><rect x="267" y="92" width="6" height="6" fill="#ffffff"/><rect x="273" y="92" width="6" height="6" fill="#ffffff"/><rect x="279" y="92" width="6" height="6" fill="#ffffff"/><rect x="285" y="92" width="6" height="6" fill="#ffffff"/><rect x="267" y="98" width="6" height="6" fill="#ffffff"/><rect x="267" y="104" width="6" height="6" fill="#ffffff"/><rect x="267" y="110" width="6" height="6" fill="#ffffff"/><rect x="273" y="110" width="6" height="6" fill="#ffffff"/><rect x="279" y="110" width="6" height="6" fill="#ffffff"/><rect x="285" y="110" width="6" height="6" fill="#ffffff"/><rect x="291" y="110" width="6" height="6" fill="#ffffff"/><rect x="303" y="74" width="6" height="6" fill="#ffffff"/><rect x="309" y="74" width="6" height="6" fill="#ffffff"/><rect x="315" y="74" width="6" height="6" fill="#ffffff"/><rect x="321" y="74" width="6" height="6" fill="#ffffff"/><rect x="303" y="80" width="6" height="6" fill="#ffffff"/><rect x="327" y="80" width="6" height="6" fill="#ffffff"/><rect x="303" y="86" width="6" height="6" fill="#ffffff"/><rect x="327" y="86" width="6" height="6" fill="#ffffff"/><rect x="303" y="92" width="6" height="6" fill="#ffffff"/><rect x="309" y="92" width="6" height="6" fill="#ffffff"/><rect x="315" y="92" width="6" height="6" fill="#ffffff"/><rect x="321" y="92" width="6" height="6" fill="#ffffff"/><rect x="303" y="98" width="6" height="6" fill="#ffffff"/><rect x="315" y="98" width="6" height="6" fill="#ffffff"/><rect x="303" y="104" width="6" height="6" fill="#ffffff"/><rect x="321" y="104" width="6" height="6" fill="#ffffff"/><rect x="303" y="110" width="6" height="6" fill="#ffffff"/><rect x="327" y="110" width="6" height="6" fill="#ffffff"/></svg>